<mxfile host="app.diagrams.net" modified="2022-03-28T21:59:48.992Z" agent="5.0 (Windows NT 10.0; Win64; x64) AppleWebKit/537.36 (KHTML, like Gecko) Chrome/99.0.4844.82 Safari/537.36" etag="5Ro0uTt2NvXRVW7oxXTP" version="15.3.1" type="github">
  <diagram id="C5RBs43oDa-KdzZeNtuy" name="Page-1">
    <mxGraphModel dx="2031" dy="1007" grid="1" gridSize="10" guides="1" tooltips="1" connect="1" arrows="1" fold="1" page="1" pageScale="1" pageWidth="827" pageHeight="1169" math="0" shadow="0">
      <root>
        <mxCell id="WIyWlLk6GJQsqaUBKTNV-0" />
        <mxCell id="WIyWlLk6GJQsqaUBKTNV-1" parent="WIyWlLk6GJQsqaUBKTNV-0" />
        <mxCell id="OIAnAZeTNp8jrT5oW28U-13" style="edgeStyle=orthogonalEdgeStyle;rounded=0;orthogonalLoop=1;jettySize=auto;html=1;entryX=0.5;entryY=0;entryDx=0;entryDy=0;" edge="1" parent="WIyWlLk6GJQsqaUBKTNV-1" source="WIyWlLk6GJQsqaUBKTNV-11" target="OIAnAZeTNp8jrT5oW28U-3">
          <mxGeometry relative="1" as="geometry" />
        </mxCell>
        <mxCell id="WIyWlLk6GJQsqaUBKTNV-11" value="Uploaded applications visible in Assignments under Pending Applications&amp;nbsp;" style="rounded=1;whiteSpace=wrap;html=1;fontSize=12;glass=0;strokeWidth=1;shadow=0;" parent="WIyWlLk6GJQsqaUBKTNV-1" vertex="1">
          <mxGeometry x="50" y="140" width="440" height="40" as="geometry" />
        </mxCell>
        <mxCell id="OIAnAZeTNp8jrT5oW28U-52" style="edgeStyle=orthogonalEdgeStyle;rounded=0;orthogonalLoop=1;jettySize=auto;html=1;" edge="1" parent="WIyWlLk6GJQsqaUBKTNV-1" source="WIyWlLk6GJQsqaUBKTNV-12" target="WIyWlLk6GJQsqaUBKTNV-11">
          <mxGeometry relative="1" as="geometry">
            <Array as="points">
              <mxPoint x="280" y="140" />
              <mxPoint x="280" y="140" />
            </Array>
          </mxGeometry>
        </mxCell>
        <mxCell id="WIyWlLk6GJQsqaUBKTNV-12" value="Applicant information into Fast Track Portal. Available documentation can be uploaded through SCANZ" style="rounded=1;whiteSpace=wrap;html=1;fontSize=12;glass=0;strokeWidth=1;shadow=0;" parent="WIyWlLk6GJQsqaUBKTNV-1" vertex="1">
          <mxGeometry x="90" y="70" width="360" height="40" as="geometry" />
        </mxCell>
        <mxCell id="OIAnAZeTNp8jrT5oW28U-66" style="edgeStyle=orthogonalEdgeStyle;rounded=0;orthogonalLoop=1;jettySize=auto;html=1;entryX=0.49;entryY=0.016;entryDx=0;entryDy=0;entryPerimeter=0;" edge="1" parent="WIyWlLk6GJQsqaUBKTNV-1" source="OIAnAZeTNp8jrT5oW28U-3" target="OIAnAZeTNp8jrT5oW28U-10">
          <mxGeometry relative="1" as="geometry" />
        </mxCell>
        <mxCell id="OIAnAZeTNp8jrT5oW28U-72" style="edgeStyle=orthogonalEdgeStyle;rounded=0;orthogonalLoop=1;jettySize=auto;html=1;entryX=0;entryY=0.5;entryDx=0;entryDy=0;" edge="1" parent="WIyWlLk6GJQsqaUBKTNV-1" source="OIAnAZeTNp8jrT5oW28U-3" target="OIAnAZeTNp8jrT5oW28U-70">
          <mxGeometry relative="1" as="geometry" />
        </mxCell>
        <mxCell id="OIAnAZeTNp8jrT5oW28U-3" value="Applicant details can be updated as required on the employee details form.&lt;br&gt;&lt;br&gt;Missing Documents can be added as required through document upload." style="rounded=1;whiteSpace=wrap;html=1;" vertex="1" parent="WIyWlLk6GJQsqaUBKTNV-1">
          <mxGeometry x="50" y="220" width="440" height="60" as="geometry" />
        </mxCell>
        <mxCell id="OIAnAZeTNp8jrT5oW28U-65" style="edgeStyle=orthogonalEdgeStyle;rounded=0;orthogonalLoop=1;jettySize=auto;html=1;entryX=0.528;entryY=0;entryDx=0;entryDy=0;entryPerimeter=0;" edge="1" parent="WIyWlLk6GJQsqaUBKTNV-1" source="OIAnAZeTNp8jrT5oW28U-10" target="OIAnAZeTNp8jrT5oW28U-27">
          <mxGeometry relative="1" as="geometry" />
        </mxCell>
        <mxCell id="OIAnAZeTNp8jrT5oW28U-10" value="All Fields Completed in Employee Record&lt;br&gt;&lt;br&gt;Required onboarding documents in correct divider.&lt;br&gt;&lt;br&gt;&lt;b&gt;SIGNED CONTRACTS ARE NOT REQUIRED FOR BANK VERIFICATION&lt;/b&gt;" style="rounded=1;whiteSpace=wrap;html=1;" vertex="1" parent="WIyWlLk6GJQsqaUBKTNV-1">
          <mxGeometry x="50" y="325" width="450" height="85" as="geometry" />
        </mxCell>
        <mxCell id="OIAnAZeTNp8jrT5oW28U-64" style="edgeStyle=orthogonalEdgeStyle;rounded=0;orthogonalLoop=1;jettySize=auto;html=1;entryX=0.5;entryY=0;entryDx=0;entryDy=0;" edge="1" parent="WIyWlLk6GJQsqaUBKTNV-1" source="OIAnAZeTNp8jrT5oW28U-24" target="OIAnAZeTNp8jrT5oW28U-26">
          <mxGeometry relative="1" as="geometry" />
        </mxCell>
        <mxCell id="OIAnAZeTNp8jrT5oW28U-24" value="Bank Verification Complete (Payroll)" style="rounded=1;whiteSpace=wrap;html=1;" vertex="1" parent="WIyWlLk6GJQsqaUBKTNV-1">
          <mxGeometry x="123.13" y="620" width="307.5" height="30" as="geometry" />
        </mxCell>
        <mxCell id="OIAnAZeTNp8jrT5oW28U-26" value="Employee Active in Greentree and Filebound" style="rounded=1;whiteSpace=wrap;html=1;" vertex="1" parent="WIyWlLk6GJQsqaUBKTNV-1">
          <mxGeometry x="123.75" y="690" width="306.25" height="30" as="geometry" />
        </mxCell>
        <mxCell id="OIAnAZeTNp8jrT5oW28U-40" style="edgeStyle=orthogonalEdgeStyle;rounded=0;orthogonalLoop=1;jettySize=auto;html=1;" edge="1" parent="WIyWlLk6GJQsqaUBKTNV-1" source="OIAnAZeTNp8jrT5oW28U-27" target="OIAnAZeTNp8jrT5oW28U-34">
          <mxGeometry relative="1" as="geometry">
            <Array as="points">
              <mxPoint x="277" y="500" />
              <mxPoint x="277" y="500" />
            </Array>
          </mxGeometry>
        </mxCell>
        <mxCell id="OIAnAZeTNp8jrT5oW28U-27" value="Employee Active in T&amp;amp;A" style="rounded=1;whiteSpace=wrap;html=1;" vertex="1" parent="WIyWlLk6GJQsqaUBKTNV-1">
          <mxGeometry x="180" y="450" width="180" height="30" as="geometry" />
        </mxCell>
        <mxCell id="OIAnAZeTNp8jrT5oW28U-69" style="edgeStyle=orthogonalEdgeStyle;rounded=0;orthogonalLoop=1;jettySize=auto;html=1;entryX=0.5;entryY=0;entryDx=0;entryDy=0;" edge="1" parent="WIyWlLk6GJQsqaUBKTNV-1" source="OIAnAZeTNp8jrT5oW28U-34" target="OIAnAZeTNp8jrT5oW28U-24">
          <mxGeometry relative="1" as="geometry" />
        </mxCell>
        <mxCell id="OIAnAZeTNp8jrT5oW28U-34" value="Record Transferred from Fast Track Project to Employee Project in Filebound" style="rounded=1;whiteSpace=wrap;html=1;" vertex="1" parent="WIyWlLk6GJQsqaUBKTNV-1">
          <mxGeometry x="61.88" y="530" width="430" height="40" as="geometry" />
        </mxCell>
        <mxCell id="OIAnAZeTNp8jrT5oW28U-73" style="edgeStyle=orthogonalEdgeStyle;rounded=0;orthogonalLoop=1;jettySize=auto;html=1;entryX=0.5;entryY=0;entryDx=0;entryDy=0;" edge="1" parent="WIyWlLk6GJQsqaUBKTNV-1" source="OIAnAZeTNp8jrT5oW28U-70" target="OIAnAZeTNp8jrT5oW28U-71">
          <mxGeometry relative="1" as="geometry" />
        </mxCell>
        <mxCell id="OIAnAZeTNp8jrT5oW28U-70" value="Transfer to Laurenka" style="rounded=1;whiteSpace=wrap;html=1;" vertex="1" parent="WIyWlLk6GJQsqaUBKTNV-1">
          <mxGeometry x="560" y="220" width="200" height="60" as="geometry" />
        </mxCell>
        <mxCell id="OIAnAZeTNp8jrT5oW28U-71" value="Generate Employment Contract &amp;amp; Code of Conduct" style="rounded=1;whiteSpace=wrap;html=1;" vertex="1" parent="WIyWlLk6GJQsqaUBKTNV-1">
          <mxGeometry x="560" y="320" width="200" height="80" as="geometry" />
        </mxCell>
      </root>
    </mxGraphModel>
  </diagram>
</mxfile>
